<svg xmlns="http://www.w3.org/2000/svg" width="16.429" height="15" viewBox="0 0 16.429 15">
  <g id="Group_100695" data-name="Group 100695" transform="translate(-1 -1)">
    <g id="Group_100699" data-name="Group 100699" transform="translate(1 1)">
      <path id="Path_50721" data-name="Path 50721" d="M5.434,4.628A2.143,2.143,0,0,1,6.949,4H9.571a.714.714,0,1,1,0,1.429H6.949a.714.714,0,0,0-.505.209l-.592.592a2.143,2.143,0,0,1-1.515.628H3.143a.714.714,0,0,0-.714.714v7.143a.714.714,0,0,0,.714.714h10a.714.714,0,0,0,.714-.714v-5a.714.714,0,1,1,1.429,0v5a2.143,2.143,0,0,1-2.143,2.143h-10A2.143,2.143,0,0,1,1,14.714V7.571A2.143,2.143,0,0,1,3.143,5.429H4.337a.714.714,0,0,0,.505-.209Z" transform="translate(-1 -1.857)" fill="#a4a5a5" fill-rule="evenodd"/>
      <path id="Path_50722" data-name="Path 50722" d="M6,12.571a3.571,3.571,0,1,1,3.571,3.571A3.571,3.571,0,0,1,6,12.571Zm3.571-2.143a2.143,2.143,0,1,0,2.143,2.143A2.143,2.143,0,0,0,9.571,10.429Z" transform="translate(-2.429 -3.286)" fill="#a4a5a5" fill-rule="evenodd"/>
      <path id="Path_50723" data-name="Path 50723" d="M16,4.714A.714.714,0,0,1,16.714,4H21a.714.714,0,1,1,0,1.429H16.714A.714.714,0,0,1,16,4.714Z" transform="translate(-5.286 -1.857)" fill="#a4a5a5" fill-rule="evenodd"/>
      <path id="Path_50724" data-name="Path 50724" d="M19.714,1a.714.714,0,0,1,.714.714V6A.714.714,0,0,1,19,6V1.714A.714.714,0,0,1,19.714,1Z" transform="translate(-6.143 -1)" fill="#a4a5a5" fill-rule="evenodd"/>
    </g>
  </g>
</svg>
