<svg xmlns="http://www.w3.org/2000/svg" width="13.936" height="15.641" viewBox="0 0 13.936 15.641">
  <g id="Group_100694" data-name="Group 100694" transform="translate(-27.662 0.441)">
    <g id="Group_100693" data-name="Group 100693" transform="translate(28.042 0)">
      <g id="Group_100692" data-name="Group 100692" transform="translate(0 0)">
        <path id="Path_50718" data-name="Path 50718" d="M40.306,1.092a3.741,3.741,0,0,0-5.284,0L29.458,6.656a.44.44,0,1,0,.622.622l5.564-5.564a2.927,2.927,0,0,1,4.041,0,2.861,2.861,0,0,1,0,4.041l-7.769,7.857a1.8,1.8,0,0,1-2.487,0,1.76,1.76,0,0,1,0-2.486l7.458-7.546a.675.675,0,0,1,.932,0,.66.66,0,0,1,0,.933l-7.147,7.235a.49.49,0,0,0,0,.622.439.439,0,0,0,.622,0l7.147-7.235a1.54,1.54,0,0,0,0-2.176,1.576,1.576,0,0,0-2.176,0L28.807,10.5a2.655,2.655,0,0,0,0,3.73,2.651,2.651,0,0,0,3.73,0l7.769-7.857A3.74,3.74,0,0,0,40.306,1.092Z" transform="translate(-28.042 0)" fill="#a4a5a5" stroke="#a4a5a5" stroke-width="0.4"/>
      </g>
    </g>
  </g>
</svg>
